<svg width="120" height="120" viewBox="0 0 120 120" fill="none" xmlns="http://www.w3.org/2000/svg">
<g clip-path="url(#clip0_1_4)">
<rect width="120" height="120" fill="black"/>
<path d="M42.448 23.096H95.953V90.434C95.953 99.134 93.256 101.135 83.773 101.831L76.204 102.44L72.55 89.303L77.944 88.868C81.859 88.52 82.903 87.824 82.903 84.344V36.233H42.448V32.753L34.966 42.845V75.905C41.491 71.12 47.581 64.769 51.496 57.896H38.533V45.107H52.453V39.365L65.503 39.713V45.107H79.336V57.896H65.503V67.292L70.636 62.072C74.116 64.595 79.423 69.641 81.946 72.86L73.942 83.648C72.376 81.386 68.461 77.21 65.503 73.991V98.264H52.453V78.08C48.973 82.517 45.145 86.345 41.23 89.477L34.966 80.69V101.483H22.003V41.279L31.834 41.54C28.354 37.799 22.786 32.753 19.828 30.491L29.572 20.312C33.313 22.835 38.707 27.446 42.448 30.926V23.096Z" fill="white"/>
<circle cx="112.5" cy="-6.5" r="40.5" fill="white" fill-opacity="0.5"/>
<circle cx="28" cy="105" r="58" fill="white" fill-opacity="0.5"/>
</g>
<defs>
<clipPath id="clip0_1_4">
<rect width="120" height="120" fill="white"/>
</clipPath>
</defs>
</svg>
